<?xml version="1.0" encoding="utf-8"?>
<!-- Generator: Adobe Illustrator 13.0.2, SVG Export Plug-In . SVG Version: 6.00 Build 14948)  -->
<!DOCTYPE svg PUBLIC "-//W3C//DTD SVG 1.1//EN" "http://www.w3.org/Graphics/SVG/1.1/DTD/svg11.dtd">
<svg version="1.1" id="Layer_2" xmlns="http://www.w3.org/2000/svg" xmlns:xlink="http://www.w3.org/1999/xlink" x="0px" y="0px"
	 width="122.952px" height="126.245px" viewBox="0 0 122.952 126.245" enable-background="new 0 0 122.952 126.245"
	 xml:space="preserve">
<rect x="-5.581" y="-6.204" display="none" fill="#506E81" width="139" height="139"/>
<g>
	<path fill="#F2BC1B" d="M113.539,48.337c-1.106,4.832-3.514,8.572-10.451,8.506c7.249-7.334,7.993-17.397,6.662-30.226
		c-0.918-8.835-9.388-13.974-9.474-21.677c-0.327,0-0.652,0-0.979,0c-1.275,3.14,0.668,5.582,0.979,7.683
		c0.92,6.178-2.395,10.216-7.186,13.171c-1.255-6.628-3.91-13.543-12.411-13.171c4.51,0.932,5.775,3.828,5.226,8.232
		c-0.792,6.354-13.9,8.471-14.552,15.628c-3.982-2.703-18.289-7.777-15.917-11.037c4.195-5.766,6.003-12.677,5.516-19.64
		c-1.882,1.711-2.916,4.136-4.899,5.762c-0.602-4.656-2.84-9.222-7.512-11.249c11.012,16.602-18.377,19.62-19.923,33.75
		c-1.991-1.53-1.676-4.996-2.94-7.134c-2.473,3.86-6.162,8.444-6.859,13.994c-1.062,8.432,2.857,15.657,5.879,21.401
		c-6.872-2.092-11.01-6.482-13.719-12.072c-3.891,12.513,0.091,24.34,8.493,30.183c1.74,1.21,4.025,1.977,5.88,3.292
		c5.041,3.583,6.159,8.64,9.798,13.172c-1.332-6.197,2.993-10.99,2.94-16.739c-0.036-3.91-1.617-6.628-2.612-10.153
		c1.928,1.033,16.688-3.735,30.149,3.802c5.047-5.497,26.546-8.123,30.929-10.114c-0.656,5.396-3.85,8.657-8.165,10.976
		c5.804-0.255,12.614-3.481,16.657-5.213c0.495,9.768-18.92,11.01-11.758,21.402c1.5-4.317,5.973-5.191,10.778-8.231
		c4.805-3.039,11.068-6.359,13.391-10.702C121.627,64.147,116.426,54.435,113.539,48.337z"/>
	<path fill-rule="evenodd" clip-rule="evenodd" fill="#F2BC1B" d="M64.545,11.843c7.882-0.946,6.752,12.486,0.98,12.622
		c-1.612,0.038-2.745-0.845-2.94-1.921C62.069,19.691,72.012,14.96,64.545,11.843z"/>
	<path fill-rule="evenodd" clip-rule="evenodd" fill="#F2BC1B" d="M12.611,14.587c1.81,4.501,16.125,5.573,7.839,11.799
		C15.116,24.31,12.374,20.785,12.611,14.587z"/>
	<path fill-rule="evenodd" clip-rule="evenodd" fill="#F2BC1B" d="M4.12,23.642c0.009-0.267,0.398-0.213,0.653-0.275
		c3.287,2.959,8.677,6.535,8.166,11.799c-0.234,2.389-2.861,4.31-1.633,6.585C2.971,39.957,4.744,30.706,4.12,23.642z"/>
</g>
<g>
	<path fill="#506E81" d="M57.123,55.363c0,0-16.49,0.158-19.002,0.314c-2.512,0.157-12.25,3.455-12.721,4.397
		c-0.471,0.942,12.406,5.183,16.176,6.283c3.769,1.099,16.473,5.025,19.317,5.025c2.984,0,21.044-9.895,21.044-9.895L57.123,55.363z
		"/>
	<path fill="#BDD1D9" stroke="#506E81" d="M114.958,57.054c-0.112-1.075-0.32-1.796-0.669-2.004
		c-1.569-0.943-15.392-4.084-28.896-6.597c-13.506-2.512-20.416-4.711-23.872-4.711s-12.563,3.455-22.929,6.91
		c-10.365,3.454-24.185,7.538-25.127,8.795c-0.463,0.617-0.697,2.529-0.705,5.501c13.252,4.864,48.288,17.458,56.143,17.584
		C73.709,82.409,102.708,64.675,114.958,57.054z M41.576,66.357c-3.77-1.1-16.647-5.34-16.176-6.283
		c0.471-0.942,10.208-4.24,12.721-4.397c2.513-0.157,19.002-0.314,19.002-0.314l24.814,6.125c0,0-18.061,9.895-21.044,9.895
		C58.048,71.382,45.345,67.456,41.576,66.357z"/>
	<path fill="#BDD1D9" stroke="#506E81" d="M45.188,105.304c-0.157-0.471-4.083-2.041-8.01-3.769
		c-3.926-1.729-6.253-2.909-6.753-0.785c-0.152,0.644-0.229,1.556-0.26,2.564c2.428,1.16,5.209,2.444,8.427,3.874
		c3.358,1.491,6.496,2.964,9.423,4.345c0-0.635,0-1.303,0-1.988C48.015,106.246,45.345,105.775,45.188,105.304z"/>
	<path fill="#BDD1D9" stroke="#506E81" d="M58.223,83.945c-3.927-1.256-37.842-13.349-39.89-13.349
		c-2.356,0-1.885,3.298-1.885,3.298l0.132,10.42l46.196,19.104L16.581,84.315l0.145,11.363c1.454,1.379,5.412,3.801,13.439,7.637
		c0.032-1.009,0.108-1.921,0.26-2.564c0.5-2.124,2.828-0.943,6.753,0.785c3.926,1.728,7.853,3.298,8.01,3.769
		c0.157,0.472,2.827,0.942,2.827,4.241c0,0.686,0,1.354,0,1.988c5.852,2.76,10.833,5.138,14.919,6.546V89.442
		C62.934,89.442,62.149,85.202,58.223,83.945z"/>
	<path fill="#BDD1D9" stroke="#506E81" d="M68.902,82.532c-7.854-0.126-42.891-12.72-56.143-17.584
		c-0.008,3.077,0.225,7.29,0.705,12.402c0.943,10.05,1.208,16.284,3.142,18.216c0.034,0.036,0.082,0.075,0.12,0.111l-0.145-11.363
		l-0.132-0.055l0.132,0.055l-0.132-10.42c0,0-0.471-3.298,1.885-3.298c2.048,0,35.963,12.092,39.89,13.349
		c3.926,1.257,4.71,5.497,4.71,5.497v28.637c2.476,0.854,4.633,1.359,6.439,1.359c6.281,0,15.078-8.48,23.871-15.391
		c8.795-6.909,18.845-12.25,19.787-13.82c0.943-1.571,0.943-7.852,1.258-15.391c0.246-5.866,1.059-14.012,0.669-17.783
		C102.708,64.675,73.709,82.409,68.902,82.532z"/>
</g>
</svg>
